<svg width="450" height="500" viewBox="0 0 450 500" fill="none" xmlns="http://www.w3.org/2000/svg">
<path d="M432.673 0H426.746L420.362 1.82728L403.947 8.6796L367.926 23.2979L334.641 37.0025L315.49 44.7685L280.837 58.9299L267.614 64.4118L250.743 71.2641L237.065 76.7459L219.282 84.0551L200.132 91.8211L183.261 98.6734L137.208 117.403L124.897 122.428L122.162 124.255L119.426 127.453L117.146 133.392L116.234 138.417V147.096L117.602 153.492L119.426 158.06L123.074 162.172L124.897 163.085H128.545L144.504 156.69L164.566 148.467L175.965 143.899L205.147 132.021L253.479 112.378L275.822 103.242L313.211 88.6233L355.159 72.1777L370.206 66.2391L392.548 57.5595L428.569 43.398L438.601 39.2866L442.248 37.0025L444.984 34.7184L447.72 30.607L449.544 26.4956L450 24.2115V16.9024L448.176 11.4205L445.44 7.30914L442.248 4.11139L437.689 1.37046L432.673 0Z" fill="#FFFFFF"/>
<path d="M324.646 336.458L320.543 336.915L299.112 345.594L269.931 357.472L240.749 369.349L227.07 374.831L137.245 411.377L123.566 416.859L108.975 422.797L86.1772 431.934L69.3065 438.786L44.6845 448.836L31.0056 454.318L11.8551 462.084L7.29541 464.825L3.19174 468.936L0.911926 473.504L0 477.159V484.011L1.82385 489.493L5.47156 494.518L10.0312 497.716L14.5909 499.543L16.4147 500H22.7982L30.5496 497.259L52.8918 488.123L94.3845 471.22L133.597 455.232L182.842 435.131L205.184 425.995L218.863 420.513L296.377 388.992L326.47 376.658L328.75 374.831L331.486 370.263L333.31 364.324L333.766 361.126V352.447L332.398 346.051L330.574 341.483L326.926 337.372L324.646 336.458Z" fill="#FFFFFF"/>
<path d="M325.066 275.883L320.962 276.34L257.127 302.379L243.448 307.861L225.665 315.17L209.707 321.566L196.484 327.047L180.525 333.443L160.463 341.666L134.473 352.173L123.529 356.741L121.25 358.568L118.514 363.136L116.69 369.075L116.234 371.816V380.952L117.602 387.348L120.794 393.743L123.985 396.484L128.089 396.941L148.607 388.718L166.39 381.409L180.069 375.927L195.572 369.532L211.531 363.136L286.765 332.529L325.977 316.541L329.625 313.8L332.817 307.404L334.185 300.552V292.329L332.817 285.477L330.993 281.365L328.257 277.711L326.433 276.34L325.066 275.883Z" fill="#FFFFFF"/>
<path d="M325.066 217.027L320.962 217.483L303.179 224.793L284.029 232.559L235.697 252.202L221.106 258.14L153.623 285.55L123.529 297.884L121.25 299.711L118.514 304.279L116.69 310.218L116.234 313.416V322.095L117.602 328.491L119.426 333.059L123.073 337.171L125.353 338.084L129.457 337.627L150.887 328.948L180.069 317.07L230.681 296.513L259.863 284.636L308.195 264.993L320.506 259.968L327.801 256.77L330.537 253.572L332.817 248.547L334.185 241.695V233.472L332.817 226.62L329.625 220.224L326.433 217.483L325.066 217.027Z" fill="#FFFFFF"/>
<path d="M324.61 99.1302L321.418 99.587L239.344 132.935L197.852 149.837L184.173 155.319L170.95 160.801L157.271 166.283L141.768 172.678L125.809 179.074L122.162 181.358L119.426 184.556L117.146 190.494L116.234 195.519V204.199L117.602 210.595L119.426 215.163L123.073 219.274L124.897 220.188H128.545L156.815 208.767L232.049 178.16L324.154 140.701L327.801 138.874L330.537 135.676L332.817 130.651L334.185 124.255V115.119L332.361 107.353L330.081 103.242L328.257 100.958L324.61 99.1302Z" fill="#FFFFFF"/>
<path d="M324.19 159.284L320.999 159.741L308.232 164.766L252.148 187.607L196.064 210.448L145.452 231.005L123.11 240.142L120.83 241.969L118.095 246.537L116.271 252.476L115.815 255.674V264.353L117.183 270.749L119.007 274.86L120.83 277.601L123.566 279.885L124.478 280.342H127.67L141.805 274.86L158.219 268.008L179.65 259.328L198.8 251.562L249.412 231.005L288.625 215.017L302.304 209.535L320.087 202.226L326.014 199.942L329.206 197.201L332.398 190.805L333.766 183.953V175.73L332.398 168.878L329.206 162.482L326.014 159.741L324.19 159.284Z" fill="#FFFFFF"/>
</svg>
